<svg width="1198" height="627" viewBox="0 0 1198 627" fill="none" xmlns="http://www.w3.org/2000/svg">
<rect width="1198" height="627" fill="white"/>
<g clip-path="url(#clip0_14_269)">
<path d="M650.375 240.563L599 223.5L547.438 240.563V386.063L599 402.938L650.375 386.063V240.563Z" fill="#A9A9A9"/>
<path d="M551.188 383.25L599 399L646.812 383.25V334.5C616.812 345.75 584.75 352.688 551.375 354.375V383.25H551.188Z" fill="#D91A32"/>
<path d="M598.812 227.438L551.188 243.188V350.063C555.125 349.688 559.25 349.125 563.375 348.563C564.875 348.375 566.187 348.188 567.687 347.813V286.688H577.25L575.562 288.563V346.313C576.5 346.125 577.437 345.938 578.187 345.75V286.688H621.687L620 288.563V334.5C620.937 334.125 621.875 333.75 622.625 333.563V286.688H629.937V330.563C635.75 328.125 641.375 325.5 646.437 322.875V243.188L598.812 227.438Z" fill="black"/>
<path d="M565.062 283.875L632.563 284.063L632.75 283.875L630.125 280.313V276.75V265.688L631.438 263.813L629.75 261.75V258.375L630.5 257.062L628.625 254.25H628.063C628.438 253.312 628.813 251.813 629 249.75V249.375H628.625C628.437 249.375 628.25 249.375 628.063 249.375C628.063 249.188 628.25 248.812 628.25 248.625C628.25 247.687 627.875 246.938 627.312 246.938C626.75 246.938 626.375 247.687 626.375 248.625C626.375 248.812 626.375 249.188 626.563 249.375C626.375 249.375 626.188 249.375 626 249.375H625.625V249.75C625.625 251.813 626 253.312 626.563 254.25H626L624.313 256.875L625.063 258.188V261.562L623.375 263.625L624.313 265.125H622.25V270.75H620.375V276.188H615.5V272.25L617 270.563H614.75V270.375L615.875 269.25L614 267.375C614.375 266.625 614.75 265.312 614.75 263.437V263.063H614.375C613.625 262.875 612.688 262.875 611.75 263.063H611.375V263.437C611.375 265.312 611.75 266.625 612.125 267.375L610.25 269.25L611.375 270.375V270.938H608.75V276.563H603.875V272.625L605.375 270.938H602V267.187L603.312 265.688H600.875V262.688L601.625 261.375L599.562 258.75H599.187C599.562 258 599.938 256.875 599.938 255V254.625H599.562C599.375 254.625 599.187 254.625 599.187 254.625C599.187 254.438 599.187 254.25 599.187 254.062C599.187 253.312 598.812 252.563 598.25 252.563C597.687 252.563 597.312 253.125 597.312 254.062C597.312 254.25 597.312 254.438 597.312 254.625C597.125 254.625 596.937 254.625 596.937 254.625H596.563V255C596.563 256.687 596.937 258 597.312 258.75H596.937L594.875 261.375L595.812 262.688V265.688H593.375V270.938H591.312V276.563H586.437V272.625L587.938 271.125V270.938H585.687V270.375L586.812 269.25L584.937 267.375C585.312 266.625 585.687 265.312 585.687 263.437V263.063H585.313C584.375 262.875 583.625 262.875 582.687 263.063H582.313V263.437C582.313 265.312 582.687 266.625 583.062 267.375L581.187 269.25L582.313 270.375V270.938H579.688V276.563H574.813V272.625L576.312 271.125H572.562V267.375L574.25 265.5H572L572.938 264L571.25 261.938V258.563L572 257.25L570.125 254.438H569.562C569.938 253.5 570.312 252 570.5 249.938V249.562H570.125C569.938 249.562 569.75 249.562 569.562 249.562C569.562 249.375 569.75 249.188 569.75 248.813C569.75 247.875 569.375 247.125 568.812 247.125C568.062 247.125 567.688 247.875 567.688 248.813C567.688 249 567.687 249.375 567.875 249.562C567.687 249.562 567.5 249.562 567.313 249.562H566.937V249.938C566.937 252 567.312 253.5 567.875 254.438H567.5L565.812 257.25L566.562 258.563V261.938L564.875 264L566.187 265.875V280.5L565.062 283.875Z" fill="white"/>
<path d="M646.625 323.062C641.563 325.687 635.937 328.313 630.125 330.75V286.688H622.813V333.562C621.875 333.938 620.937 334.312 620.187 334.5V288.75L621.875 286.875H578.375V346.125C577.438 346.313 576.5 346.5 575.75 346.687V288.75L577.438 286.875H567.875V348C566.375 348.188 565.063 348.375 563.563 348.75C559.25 349.125 555.125 349.687 551.188 350.062V351.937C551.188 351.937 597.5 348.937 646.625 328.5V323.062Z" fill="white"/>
<path d="M615.313 294.375H601.062V314.813L604.063 312H612.687V305.625H603.5V303.563H612.687V297L615.313 294.375Z" fill="black"/>
<path d="M597.875 294.375H583.812V314.813L586.625 312H595.25V305.625H586.25V303.563H595.25V297L597.875 294.375Z" fill="black"/>
<path d="M615.313 317.438H601.062V337.875L604.063 335.063H612.687V328.687H603.5V326.625H612.687V320.063L615.313 317.438Z" fill="black"/>
<path d="M597.875 317.438H583.812V337.875L586.625 335.063H595.25V328.687H586.25V326.625H595.25V320.063L597.875 317.438Z" fill="black"/>
<path d="M591.875 358.688H584.188L584.937 360.188V360.375V370.5L567.875 358.688H560.75L561.688 360.375V378.75L560.937 380.437H568.812L568.063 378.75V365.625L584.937 377.25V378.75L584.375 380.437H591.875L591.125 378.75V360.375L591.875 358.688Z" fill="white"/>
<path d="M605 358.688H597.312L598.062 360.188V360.375V378.75L597.5 380.437H605L604.25 378.75V360.375L605 358.688Z" fill="white"/>
<path d="M637.813 358.688H629.938L630.875 360.375V375.562H617.563V360.375L618.313 358.688H610.438L611.375 360.375L611.188 376.687L616.25 380.625H632.188L637.063 376.687V360.375L637.813 358.688Z" fill="white"/>
</g>
<defs>
<clipPath id="clip0_14_269">
<rect width="103.125" height="180" fill="white" transform="translate(547.438 223.5)"/>
</clipPath>
</defs>
</svg>
