<svg width="1198" height="627" viewBox="0 0 1198 627" fill="none" xmlns="http://www.w3.org/2000/svg">
<rect width="1198" height="627" fill="white"/>
<path fill-rule="evenodd" clip-rule="evenodd" d="M531.825 345.49C546.598 346.472 558.029 352.082 558.015 358.847C558.008 364.05 551.07 368.628 541.033 370.851C552.97 390.394 574.423 403.464 598.853 403.5C623.254 403.539 644.725 390.538 656.73 371.057C646.651 368.8 639.691 364.205 639.698 358.977C639.713 352.19 651.198 346.62 666.039 345.706C666.236 344.425 666.405 343.122 666.537 341.823C652.994 342.377 641.487 346.048 634.517 355.17L604.095 315.95C611.532 319.93 621.78 319.265 630.673 315.994C627.044 321.751 632.261 329.563 638.432 329.574C653.995 329.599 656.139 315.95 646.877 310.171C651.535 310.179 656.422 308.822 660.553 306.695C655.551 295.911 647.849 286.663 638.339 279.797L635.033 284.018C626.628 273.849 614.304 270.459 599.086 270.434C583.822 270.413 570.719 273.845 563.053 283.903L559.786 279.65C550.227 286.461 542.475 295.688 537.462 306.454C541.582 308.617 546.494 310.009 551.127 310.017H551.105C551.105 310.035 551.127 310.017 551.148 310.017C549.764 310.888 548.638 311.909 547.763 313.039C542.84 319.517 546.336 329.423 559.557 329.445C560.812 329.448 562.024 329.128 563.132 328.577C567.471 326.364 570.203 320.481 567.385 315.889C567.385 315.911 567.385 315.911 567.385 315.911C567.385 315.889 567.385 315.889 567.363 315.889C576.159 319.146 586.317 319.866 593.79 315.994C593.833 315.972 593.872 315.95 593.915 315.929L593.894 315.954C593.915 315.929 593.937 315.929 593.937 315.929L563.379 355.058C563.379 355.036 563.379 355.036 563.379 355.036L563.358 355.058C555.699 345.81 544.777 342.187 531.362 341.589C531.47 342.91 531.635 344.212 531.825 345.49ZM598.971 274.342C615.892 274.367 629.701 280.362 629.687 287.789C629.68 295.173 615.849 301.251 598.928 301.222C582.047 301.193 568.195 295.072 568.209 287.689C568.22 280.265 582.09 274.313 598.971 274.342ZM627.41 381.168L623.458 394.986C623.136 394.644 622.311 394.238 621.077 393.982C620.848 393.979 619.761 393.979 618.549 394.468C617.226 394.72 615.91 394.979 614.845 394.975C612.066 394.972 609.277 394.22 606.666 392.658C604.034 390.837 601.912 387.955 600.363 384.497C598.799 381.121 598.079 377.088 598.086 372.478C598.247 368.275 598.996 364.907 600.402 362.028C601.79 359.067 603.766 357.019 606.06 355.468C608.366 353.745 610.976 353 613.763 353.003C615.079 353.327 616.394 353.583 617.782 353.759C618.922 353.993 620.073 354.252 620.73 354.486C621.877 354.256 622.544 353.593 622.774 352.611L625.301 368.894L624.154 369.297C623.494 366.094 622.522 363.701 621.12 362.057C619.805 360.412 618.173 359.344 616.534 359.34C615.24 359.337 614.153 360.146 613.006 361.298C611.794 362.294 610.786 364.173 610.127 366.389C609.481 368.865 609.141 371.744 609.133 375.116C609.302 377.591 609.868 379.898 610.611 381.859C611.417 383.845 612.647 385.576 613.881 386.731C615.197 387.714 616.495 388.379 617.979 388.383C621.257 388.214 624.129 385.598 626.266 380.243L627.41 381.168ZM573.262 357.548C574.581 357.296 575.646 356.4 576.561 354.418C577.371 352.777 577.862 350.816 577.866 348.171C577.866 347.192 577.701 345.95 577.554 344.05C581 343.162 584.277 341.118 587.407 338.243L587.379 354.928L591.951 354.936C593.266 354.936 594.245 354.792 594.905 354.216L593.091 360.125C592.768 359.549 592.194 359.311 591.452 359.308L587.368 359.301L587.336 380.189C587.332 382.665 587.648 384.479 588.135 385.803C588.795 386.933 589.448 387.681 590.43 387.685C591.578 387.685 592.56 386.94 593.621 385.555C594.708 384.317 595.436 382.676 596.01 380.459L597.075 381.125L594.357 392.64C590.907 394.194 587.949 394.936 585.507 394.932C582.875 394.925 580.917 393.921 579.282 392.276C577.798 390.376 577.059 386.918 577.066 382.651L577.102 359.29L573.254 359.283L573.262 357.548ZM531.868 345.555C533.256 354.691 536.454 363.273 541.098 370.851C536.927 371.783 532.209 372.287 527.257 372.28C510.375 372.251 496.523 366.148 496.538 358.743C496.548 351.341 510.422 345.346 527.303 345.375C528.849 345.378 530.358 345.447 531.868 345.555ZM531.384 341.607C531.176 339.495 531.072 337.336 531.075 335.162C531.09 324.921 533.381 315.22 537.437 306.501C531.764 303.504 527.54 299.016 527.461 294.536C527.278 302.259 514.811 309.984 503.731 309.966C512.993 315.742 510.845 329.394 495.261 329.369C489.119 329.358 483.88 321.539 487.502 315.789C478.656 319.06 468.404 319.7 460.949 315.745L491.374 354.943C499.023 344.929 512.143 341.496 527.389 341.521C528.727 341.521 530.068 341.564 531.384 341.607ZM638.357 279.758C627.27 271.784 613.712 267.088 599.09 267.066C584.46 267.041 570.87 271.715 559.736 279.675L532.621 244.684C540.076 248.646 550.327 247.998 559.173 244.727C555.573 250.485 560.79 258.3 566.954 258.307C582.516 258.333 584.689 244.68 575.424 238.905C586.486 238.926 598.957 231.222 599.14 223.5C599.294 231.222 611.74 238.966 622.82 238.984C613.537 244.731 615.638 258.387 631.229 258.412C637.371 258.423 642.631 250.621 639.031 244.853C647.892 248.153 658.136 248.829 665.58 244.896L638.357 279.758ZM660.592 306.677C664.641 315.411 666.874 325.141 666.86 335.386C666.853 337.559 666.77 339.714 666.552 341.827C667.846 341.783 669.184 341.748 670.528 341.748C685.768 341.773 698.052 345.162 706.475 355.292L737.051 316.188C729.585 320.125 719.341 319.445 710.473 316.145C714.081 321.913 708.82 329.714 702.671 329.704C687.087 329.675 684.986 316.019 694.266 310.276C683.186 310.258 670.74 302.492 670.6 294.77C670.489 299.247 666.272 303.698 660.592 306.677ZM656.727 371.082C661.413 363.496 664.662 354.925 666.075 345.753C667.484 345.67 668.947 345.609 670.439 345.609C687.317 345.637 701.168 351.679 701.154 359.077C701.14 366.483 687.274 372.539 670.388 372.51C665.483 372.503 660.854 371.985 656.727 371.082Z" fill="#F57729"/>
</svg>
